<?xml version="1.0" encoding="UTF-8"?>
<svg id="_Слой_1" data-name="Слой 1" xmlns="http://www.w3.org/2000/svg" viewBox="0 0 148.51 182.61">
  <defs>
    <style>
      .cls-1 {
        fill: #fff;
      }
    </style>
  </defs>
  <path class="cls-1" d="M145.95,68.09L80.42,2.55c-3.4-3.4-8.92-3.4-12.33,0L2.55,68.09c-1.63,1.63-2.55,3.85-2.55,6.16v34.1c0,2.31,.92,4.53,2.55,6.16l65.54,65.54c3.4,3.4,8.92,3.4,12.33,0l65.54-65.54c1.63-1.63,2.55-3.85,2.55-6.16v-34.1c0-2.31-.92-4.53-2.55-6.16Zm-5.45,35.87l-12.65-12.65,12.65-12.65v25.31Zm-18.12-18.12l-44.26-44.26V11.19l59.45,59.45-15.19,15.19Zm-90.78,5.47l42.66-42.66,42.66,42.66-42.66,42.66L31.59,91.3ZM70.39,11.19v30.39L26.13,85.84l-15.19-15.19L70.39,11.19Zm3.87,164.09v-30.39l48.13-48.13,15.19,15.19-63.32,63.32Z"/>
</svg>